Fly_normalized_Motion_pl04
version=1
nRows=16
nColumns=43
inDegrees=yes
endheader
time		pelvis_tilt		pelvis_list		pelvis_rotation		pelvis_tx		pelvis_ty		pelvis_tz		hip_flexion_r		hip_adduction_r		hip_rotation_r		knee_angle_r		ankle_angle_r		subtalar_angle_r		mtp_angle_r		hip_flexion_l		hip_adduction_l		hip_rotation_l		knee_angle_l		ankle_angle_l		subtalar_angle_l		mtp_angle_l		lumbar_extension		lumbar_bending		lumbar_rotation		neck_flexion		neck_lateral_bending		neck_rotation		arm_flex_r		arm_add_r		arm_rot_r		elbow_flex_r		pro_sup_r		wrist_flex_r		wrist_dev_r		hand_finger_flex_r		arm_flex_l		arm_add_l		arm_rot_l		elbow_flex_l		pro_sup_l		wrist_flex_l		wrist_dev_l		hand_finger_flex_l		
2.575000		1.271901		-20.946338		91.944019		0.000465		1.664016		1.342203		67.991458		-5.107999		5.765571		-127.498415		-15.632789		7.063239		31.485890		56.740780		-12.334461		6.857297		-126.249081		2.036179		8.417924		26.816268		-30.174179		-1.454629		0.142727		12.800711		8.207648		0.905332		108.673069		-6.675074		30.502350		45.460025		97.400151		-6.242592		-14.800507		-27.424124		107.090014		-6.353437		17.301505		46.293174		112.612211		-16.372683		-10.121098		-20.418806		
2.578965		1.250744		-20.475466		91.863627		0.000481		1.664876		1.333821		67.542357		-5.004740		5.324766		-126.737680		-14.402627		6.402255		31.440927		56.207367		-12.315976		6.711338		-125.655140		1.311259		8.086742		26.686843		-30.123661		-1.486598		0.443643		11.097277		8.218972		0.707950		106.848216		-7.573458		30.530812		46.707438		98.002791		-6.115909		-14.643839		-27.672197		105.225504		-6.997823		17.408799		47.206407		113.159950		-15.901391		-9.973755		-20.469191		
2.582929		1.200214		-20.225241		91.682983		0.000435		1.664944		1.326538		67.497865		-4.892619		4.889026		-126.025411		-13.866311		5.997577		31.383975		56.076046		-12.270073		6.492793		-125.248502		1.558625		8.087080		26.650622		-29.943890		-1.563118		0.727104		10.685176		8.267785		0.595189		105.420893		-8.046266		30.393662		47.237461		98.774819		-5.818572		-14.135501		-27.997253		103.834357		-7.338676		17.209023		47.378478		113.695925		-15.265920		-9.487263		-20.510790		
2.586894		1.186909		-20.140884		91.424209		0.000684		1.664873		1.318846		67.618451		-4.578664		4.533842		-125.136967		-12.740806		5.209284		31.204892		56.027914		-12.358920		6.187680		-124.752997		2.800881		8.509548		26.681829		-29.583986		-1.725748		1.239113		9.710468		8.354263		0.310748		103.387696		-8.973652		29.384951		48.915796		101.112239		-4.836265		-12.928501		-29.061131		101.854805		-7.660977		16.337917		48.583927		115.341040		-13.500303		-8.447301		-20.756104		
2.590859		1.096183		-19.807150		91.318920		0.000414		1.665156		1.311530		67.510593		-4.542554		4.146021		-124.201788		-11.551102		4.771249		31.179832		55.852835		-12.152797		5.866857		-124.239383		3.753924		8.441768		26.863579		-29.594633		-1.760628		1.420660		9.126653		8.216080		0.162138		101.900658		-9.632585		29.384365		49.514951		101.364512		-4.606608		-13.295660		-29.218001		100.342764		-8.371634		16.523591		48.993134		115.608346		-13.158470		-8.616771		-20.764745		
2.594823		1.023298		-19.535294		91.133561		0.000443		1.665179		1.304085		67.506841		-4.376491		3.739715		-123.253239		-10.233955		4.395927		31.158364		55.733935		-12.061630		5.484531		-123.746922		4.836587		8.359305		27.185271		-29.520001		-1.859207		1.691922		8.481520		8.121134		-0.002668		100.290998		-10.287273		29.224100		50.152243		101.630085		-4.424477		-13.627394		-29.379575		98.697607		-9.049703		16.596097		49.564124		115.840686		-12.641972		-8.611557		-20.687660		
2.598788		0.955783		-19.295246		90.963187		0.000446		1.665023		1.296751		67.602730		-4.232631		3.312720		-122.343070		-9.022565		3.999316		31.147659		55.681274		-12.001987		5.119892		-123.107560		5.490734		8.032640		27.532423		-29.438582		-1.952098		1.904509		7.879740		8.079481		-0.134330		98.673581		-10.900434		29.006245		50.731164		101.822132		-4.289306		-13.873962		-29.471998		97.050994		-9.799406		16.624041		50.154766		116.044019		-12.061156		-8.488939		-20.549508		
2.602753		0.893807		-19.065042		90.840109		0.000535		1.664707		1.289290		67.733539		-4.098723		2.842214		-121.484217		-7.976375		3.511139		31.142728		55.680115		-11.946478		4.767882		-122.414583		5.755115		7.302304		27.864066		-29.350278		-2.023388		2.076200		7.268651		8.076274		-0.240835		96.964722		-11.459668		28.668454		51.327149		101.970977		-4.163360		-14.023254		-29.526628		95.344493		-10.618313		16.629299		50.825992		116.263416		-11.420486		-8.288905		-20.387320		
2.606717		0.888408		-19.043634		90.720455		0.000801		1.663815		1.281869		68.125715		-3.931765		2.282343		-120.681718		-7.531211		2.831150		31.140716		56.034331		-12.024158		4.337772		-121.762036		5.236616		4.934703		28.312269		-29.020512		-2.093740		2.185859		6.731102		8.178889		-0.249857		94.973135		-11.735701		27.617164		52.022345		102.353199		-3.800078		-13.604375		-29.522894		93.446116		-11.456443		16.243205		51.839119		116.732819		-10.257930		-7.474613		-20.221527		
2.610682		0.793157		-18.774360		90.730584		0.000711		1.663231		1.274478		68.302060		-3.946375		1.806526		-119.888142		-7.097027		2.036413		31.139531		56.146670		-11.869609		4.056968		-121.039147		4.817002		3.477991		28.473909		-29.043892		-2.132473		2.195371		6.241134		8.121546		-0.284306		93.205793		-12.277728		27.097275		52.704953		102.667786		-3.501071		-13.446230		-29.506173		91.749167		-12.350782		16.192182		52.533665		117.114281		-9.631932		-7.225838		-20.214966		
2.614646		0.922966		-18.616997		90.695215		0.001048		1.662318		1.267068		68.553996		-3.698625		1.151429		-119.013834		-7.332019		0.890568		31.132311		56.499172		-12.032356		3.736595		-120.382263		4.005712		0.334452		28.081019		-28.956898		-2.039616		2.334814		6.011428		8.146385		-0.336481		91.130255		-12.450635		25.724931		53.538710		103.207636		-3.104359		-12.728437		-29.514807		89.948600		-13.268149		15.919676		53.332571		117.634753		-8.959937		-6.809236		-20.428464		
2.618611		0.822864		-18.241371		90.756004		0.000862		1.661657		1.259866		68.647867		-3.775282		0.659917		-118.130779		-7.356616		0.399306		31.128344		56.587229		-11.915524		3.464195		-119.619044		3.834370		-0.615983		27.845344		-29.164145		-2.036173		2.371134		5.739505		8.039909		-0.363230		89.531757		-13.062054		25.409557		53.923244		103.448716		-2.902192		-12.613431		-29.510473		88.448910		-14.077825		16.011529		53.594698		117.853225		-8.698246		-6.795272		-20.512088		
2.622576		1.092543		-18.134307		90.667210		0.001384		1.660534		1.252353		68.919995		-3.355414		-0.015415		-117.075119		-7.726655		-0.656978		31.114271		56.981533		-12.323759		3.099678		-118.920323		3.593028		-3.956446		26.866513		-29.089360		-1.842673		2.634460		5.598837		8.012277		-0.432148		87.217670		-13.110155		23.661028		54.880250		103.872388		-2.785495		-12.111231		-29.603254		86.470825		-15.169180		15.729818		54.602690		118.214422		-8.435737		-6.632093		-20.875797		
2.626540		1.044869		-17.829793		90.754531		0.001129		1.659738		1.245098		69.005324		-3.411007		-0.445703		-116.023214		-7.853065		-0.834724		31.106143		57.184819		-12.252705		2.758356		-118.097486		3.634750		-5.104157		26.295421		-29.273508		-1.795737		2.614982		5.106064		7.888333		-0.448034		85.345575		-13.745136		23.116548		55.530345		104.204219		-2.594789		-12.097028		-29.608750		84.789492		-16.184661		15.811419		55.188881		118.444476		-8.251168		-6.656385		-21.079430		
2.630505		1.106677		-17.761444		90.772780		0.001252		1.658373		1.237924		69.359207		-3.297195		-0.904659		-114.943297		-7.858385		-0.821221		31.094016		57.608942		-12.370871		2.337802		-117.219051		3.746739		-6.850888		25.383975		-29.198372		-1.711058		2.652935		4.931902		7.851761		-0.437881		83.294861		-13.957493		21.929752		56.035525		104.657858		-2.442392		-11.869068		-29.653901		82.987722		-17.253235		15.672934		55.867923		118.709145		-8.089143		-6.413042		-21.493840		
2.634470		1.080737		-17.809453		90.794274		0.000964		1.656584		1.230914		69.860903		-3.318231		-1.194038		-113.883217		-7.797325		-0.560314		31.076117		58.221495		-12.317771		1.889426		-116.385642		3.640468		-8.491945		24.044804		-28.982109		-1.646938		2.588549		4.741123		7.824979		-0.365222		81.248156		-14.095027		20.696576		56.444769		105.485841		-2.003861		-11.492481		-29.634300		81.151962		-18.344296		15.503232		56.529772		119.052953		-7.749332		-5.866602		-22.124719		
